<?xml version="1.0" encoding="UTF-8"?>
<svg id="katman_2" data-name="katman 2" xmlns="http://www.w3.org/2000/svg" viewBox="0 0 732.44 159.99">
  <g id="katman_1" data-name="katman 1">
    <g>
      <path d="M43.39,157.42c0,1.71-.95,2.57-2.84,2.57-1.22,0-2.39-.23-3.49-.69-1.1-.46-2.11-.96-3.03-1.51-1.9-1.04-3.56-2.57-5-4.59s-2.66-4.34-3.67-6.97c-1.01-2.63-1.87-5.49-2.57-8.58-.7-3.09-1.27-6.23-1.7-9.4-.43-3.18-.77-6.33-1.01-9.45-.25-3.12-.4-6.02-.46-8.71-1.77-.67-3.56-1.44-5.37-2.29-1.8-.86-3.43-1.82-4.86-2.89-1.44-1.07-2.61-2.23-3.53-3.48-.92-1.25-1.38-2.59-1.38-3.99,0-1.1.26-2.09.78-2.98.52-.89,1.39-1.33,2.61-1.33,1.04,0,2.02.23,2.94.69s1.83,1.06,2.75,1.79c.92.73,1.87,1.57,2.84,2.52.98.95,2.02,1.91,3.12,2.89,0-6.24.21-12.86.64-19.86.43-7,1.19-14.01,2.29-21.01,1.1-7,2.58-13.84,4.45-20.5,1.86-6.67,4.23-12.81,7.11-18.44l1.65.55c-2.08,10.58-3.59,21.18-4.54,31.79-.95,10.61-1.42,21.24-1.42,31.88,0,3.91.11,7.78.32,11.6.21,3.82.54,7.63.96,11.42,1.83.73,3.88,1.32,6.15,1.74,2.26.43,4.77.64,7.52.64,4.65,0,8.97-.7,12.98-2.11,4.01-1.41,7.68-3.35,11.01-5.83,3.33-2.47,6.28-5.4,8.85-8.76,2.57-3.36,4.74-6.99,6.51-10.87,1.77-3.88,3.12-7.92,4.04-12.11.92-4.19,1.38-8.39,1.38-12.62s-.46-8.39-1.38-12.71c-.92-4.31-2.28-8.5-4.08-12.57-1.8-4.07-4.01-7.87-6.61-11.42-2.6-3.55-5.58-6.65-8.94-9.31-3.37-2.66-7.08-4.77-11.15-6.33-4.07-1.56-8.46-2.34-13.17-2.34-3.85,0-7.83.7-11.93,2.11-4.1,1.41-7.81,3.38-11.15,5.92-3.33,2.54-6.09,5.58-8.26,9.13-2.17,3.55-3.26,7.43-3.26,11.65,0,1.65.2,3.14.6,4.45s.83,2.52,1.28,3.62c.46,1.1.89,2.12,1.28,3.07.4.95.6,1.91.6,2.89,0,1.77-.6,3.26-1.79,4.45-1.19,1.19-2.65,1.79-4.36,1.79-1.59,0-2.84-.43-3.76-1.29-.92-.86-1.64-1.93-2.16-3.21-.52-1.28-.86-2.64-1.01-4.08-.15-1.44-.23-2.71-.23-3.81,0-5.38,1.27-10.26,3.81-14.63,2.54-4.37,5.85-8.27,9.95-11.7,2.57-2.2,5.15-4.14,7.75-5.83,2.6-1.68,5.28-3.09,8.03-4.22,2.75-1.13,5.64-1.99,8.67-2.57,3.03-.58,6.25-.87,9.68-.87,7.95,0,15.29,1.36,22.02,4.08,6.73,2.72,12.52,6.51,17.38,11.37,4.86,4.86,8.65,10.64,11.38,17.34,2.72,6.7,4.08,14.05,4.08,22.06s-1.45,15.98-4.36,23.16-6.94,13.46-12.11,18.81c-5.17,5.35-11.3,9.56-18.4,12.62s-14.83,4.59-23.21,4.59c-2.14,0-4.31-.12-6.51-.37-2.2-.24-4.37-.55-6.51-.92,2.02,13.82,5.69,27.46,11.01,40.92.18.49.35.99.5,1.51.15.52.23,1.02.23,1.51Z"/>
      <path d="M143.3,79.63c0,.67-.25,1.27-.73,1.79-.49.52-1.07.78-1.74.78-.55,0-1.13-.17-1.74-.5-.61-.34-1.3-.72-2.06-1.15-.77-.43-1.65-.81-2.66-1.15-1.01-.34-2.16-.5-3.44-.5-3,0-5.67.93-8.03,2.8s-4.34,4.17-5.96,6.93c-1.62,2.75-2.86,5.69-3.72,8.81-.86,3.12-1.28,5.93-1.28,8.44,0,1.77.15,3.5.46,5.18.3,1.68.84,3.21,1.61,4.58.76,1.38,1.82,2.48,3.17,3.31,1.34.82,3.06,1.24,5.14,1.24,2.2,0,4.31-.41,6.33-1.24,2.02-.83,3.91-1.91,5.69-3.26.06-1.95.38-4.02.96-6.19.58-2.17,1.33-4.31,2.25-6.42.92-2.11,1.97-4.11,3.17-6.01,1.19-1.9,2.43-3.58,3.72-5.04l1.19.73c-.67,2.08-1.16,4.22-1.47,6.42-.31,2.2-.46,4.37-.46,6.52s.18,4.28.55,6.24c.37,1.96,1.01,3.66,1.93,5.09.92,1.44,2.17,2.57,3.76,3.39,1.59.83,3.64,1.24,6.15,1.24,3.06,0,5.87-.7,8.44-2.11,2.57-1.41,4.83-3.18,6.79-5.32l.73.36c-1.1,2.14-2.54,4.19-4.31,6.15-1.77,1.96-3.75,3.72-5.92,5.28s-4.48,2.8-6.93,3.72-4.86,1.37-7.25,1.37c-3.36,0-6.12-.96-8.26-2.89s-3.61-4.36-4.4-7.29c-2.57,2.57-5.43,4.72-8.58,6.47-3.15,1.75-6.47,2.61-9.95,2.61-2.57,0-4.85-.47-6.84-1.42-1.99-.95-3.66-2.22-5-3.81-1.34-1.59-2.37-3.47-3.07-5.64-.7-2.17-1.06-4.45-1.06-6.84,0-2.75.44-5.58,1.33-8.49.89-2.9,2.11-5.76,3.67-8.58s3.41-5.47,5.55-7.98c2.14-2.51,4.48-4.71,7.02-6.6,2.54-1.9,5.21-3.4,8.03-4.5,2.81-1.1,5.69-1.65,8.62-1.65.67,0,1.5.08,2.48.23.98.16,1.93.41,2.84.78.92.37,1.7.89,2.34,1.56.64.67.96,1.53.96,2.57Z"/>
      <path d="M217.05,117.61c-1.96,4.04-4.71,7.23-8.26,9.59-3.55,2.35-7.58,3.53-12.11,3.53-3.73,0-7.06-1.13-10-3.4-2.94-2.26-5.52-5.23-7.75-8.9-2.23-3.67-4.13-7.81-5.69-12.43-1.56-4.62-2.84-9.31-3.85-14.08-1.01-4.77-1.74-9.37-2.2-13.81-.46-4.44-.69-8.3-.69-11.61,0-4.04.21-8.47.64-13.3.43-4.83,1.13-9.71,2.11-14.63s2.25-9.71,3.81-14.36c1.56-4.65,3.45-8.76,5.69-12.34,2.23-3.58,4.82-6.45,7.75-8.62,2.94-2.17,6.3-3.26,10.09-3.26,3.24,0,5.87.95,7.89,2.84,2.02,1.9,3.61,4.24,4.77,7.02,1.16,2.78,1.94,5.73,2.34,8.85.4,3.12.6,5.9.6,8.35,0,6.6-.78,13.1-2.34,19.5-1.56,6.39-3.7,12.41-6.42,18.07-2.72,5.66-5.92,10.8-9.59,15.41-3.67,4.62-7.61,8.49-11.84,11.61.86,4.1,1.88,8.09,3.07,11.97,1.19,3.88,2.64,7.34,4.36,10.36,1.71,3.03,3.68,5.47,5.92,7.34s4.79,2.8,7.66,2.8,5.35-.58,7.43-1.74c2.08-1.16,4.01-2.88,5.78-5.14l.83.37ZM179.26,61.01c-.06,1.34-.08,3-.05,4.95.03,1.96.12,4.11.28,6.47.15,2.35.38,4.88.69,7.57.31,2.69.7,5.44,1.19,8.26,4.1-3.67,7.58-7.74,10.46-12.2,2.87-4.46,5.23-9.28,7.06-14.45,1.83-5.17,3.17-10.61,3.99-16.33.83-5.72,1.24-11.66,1.24-17.84,0-.79-.02-1.84-.05-3.12-.03-1.29-.14-2.66-.32-4.13-.18-1.47-.44-2.94-.78-4.4-.34-1.47-.8-2.8-1.38-3.99-.58-1.19-1.32-2.17-2.2-2.93-.89-.77-1.94-1.15-3.17-1.15-2.32,0-4.36,1.15-6.1,3.44-1.74,2.29-3.24,5.21-4.5,8.76-1.26,3.55-2.29,7.46-3.12,11.75-.83,4.28-1.48,8.39-1.97,12.34-.49,3.94-.83,7.48-1.01,10.6-.18,3.12-.28,5.26-.28,6.42Z"/>
      <path d="M274.39,114.58c-1.59,2.33-3.5,4.5-5.73,6.52-2.23,2.02-4.68,3.76-7.34,5.23-2.66,1.47-5.44,2.63-8.35,3.49-2.91.86-5.83,1.28-8.76,1.28-4.16,0-8.04-.53-11.65-1.61-3.61-1.07-6.76-2.71-9.45-4.91s-4.8-4.97-6.33-8.3c-1.53-3.33-2.29-7.23-2.29-11.7s.81-8.52,2.43-12.34c1.62-3.82,3.85-7.15,6.7-10,2.84-2.85,6.19-5.09,10.05-6.74,3.85-1.65,7.98-2.48,12.39-2.48,2.08,0,4.02.29,5.83.87,1.8.58,3.38,1.44,4.72,2.57,1.34,1.13,2.4,2.52,3.17,4.17.76,1.65,1.15,3.55,1.15,5.69,0,2.57-.52,4.83-1.56,6.79-1.04,1.96-2.42,3.67-4.13,5.14-1.71,1.47-3.66,2.69-5.83,3.67-2.17.98-4.44,1.77-6.79,2.38-2.36.61-4.68,1.06-6.97,1.33-2.29.27-4.39.41-6.28.41h-2.2c.79,5.57,3,9.82,6.6,12.75,3.61,2.94,8.59,4.41,14.95,4.41,4.52,0,8.94-.79,13.25-2.39,4.31-1.59,8.21-3.79,11.7-6.6l.73.36ZM226.87,103.3h2.29c2.2,0,4.46-.35,6.79-1.06,2.32-.7,4.42-1.74,6.28-3.12,1.87-1.37,3.41-3.07,4.63-5.09,1.22-2.02,1.83-4.31,1.83-6.88s-.54-4.59-1.61-6.24c-1.07-1.65-2.92-2.48-5.55-2.48s-4.97.81-6.84,2.43c-1.87,1.62-3.38,3.61-4.54,5.96-1.16,2.35-2,4.83-2.52,7.43-.52,2.6-.78,4.91-.78,6.93v2.11Z"/>
      <path d="M331.45,114.58c-1.34,2.26-2.92,4.37-4.72,6.33-1.81,1.96-3.79,3.67-5.96,5.14s-4.51,2.61-7.02,3.44c-2.51.83-5.11,1.24-7.8,1.24-3.98,0-7.48-.67-10.5-2.02-3.03-1.34-5.64-3.17-7.84-5.46-2.2-2.3-4.04-4.97-5.5-8.03s-2.63-6.26-3.49-9.59c-.86-3.33-1.47-6.74-1.83-10.23-.37-3.48-.55-6.82-.55-10,0-2.94.12-5.95.37-9.04.24-3.09.61-6.26,1.1-9.5-1.9.06-3.75.09-5.55.09h-5.37c-1.16,0-2.48-.03-3.94-.09-1.47-.06-2.84-.31-4.13-.74-1.28-.43-2.35-1.07-3.21-1.92s-1.28-2.11-1.28-3.76c0-.92.17-1.65.5-2.2.34-.55.8-.96,1.38-1.24.58-.27,1.26-.46,2.02-.55.77-.09,1.55-.14,2.34-.14.92,0,3.09.15,6.51.46s7.55.64,12.39,1.01c1.53-7.22,3.5-14.31,5.92-21.28,2.41-6.97,5.15-13.33,8.21-19.08h1.28c-1.96,6.67-3.69,13.39-5.18,20.18-1.5,6.79-2.61,13.67-3.35,20.64,4.46.31,9.07.56,13.81.78s9.37.32,13.9.32c6.66,0,12.08-.06,16.24-.19,4.16-.12,7.43-.27,9.82-.46,2.81-.24,4.92-.49,6.33-.73l.37,1.56c-3.67.86-7.86,1.67-12.57,2.43-4.71.77-9.72,1.44-15.04,2.02-5.32.58-10.83,1.09-16.51,1.51-5.69.43-11.35.77-16.97,1.01-.12,1.22-.18,2.46-.18,3.72v3.72c0,2.94.14,6.18.41,9.72.28,3.55.78,7.11,1.51,10.69.73,3.58,1.73,7.07,2.98,10.46,1.25,3.39,2.9,6.39,4.95,8.99,2.05,2.6,4.51,4.7,7.39,6.28,2.87,1.59,6.27,2.38,10.18,2.38,3.61,0,6.87-.79,9.77-2.38s5.67-3.55,8.3-5.87l.55.36Z"/>
      <path d="M412.09,157.42c0,1.71-.95,2.57-2.84,2.57-1.22,0-2.39-.23-3.49-.69-1.1-.46-2.11-.96-3.03-1.51-1.9-1.04-3.56-2.57-5-4.59s-2.66-4.34-3.67-6.97c-1.01-2.63-1.87-5.49-2.57-8.58-.7-3.09-1.27-6.23-1.7-9.4-.43-3.18-.77-6.33-1.01-9.45-.25-3.12-.4-6.02-.46-8.71-1.77-.67-3.56-1.44-5.37-2.29-1.8-.86-3.43-1.82-4.86-2.89-1.44-1.07-2.61-2.23-3.53-3.48-.92-1.25-1.38-2.59-1.38-3.99,0-1.1.26-2.09.78-2.98.52-.89,1.39-1.33,2.61-1.33,1.04,0,2.02.23,2.94.69s1.83,1.06,2.75,1.79c.92.73,1.87,1.57,2.84,2.52.98.95,2.02,1.91,3.12,2.89,0-6.24.21-12.86.64-19.86.43-7,1.19-14.01,2.29-21.01,1.1-7,2.58-13.84,4.45-20.5,1.86-6.67,4.23-12.81,7.11-18.44l1.65.55c-2.08,10.58-3.59,21.18-4.54,31.79-.95,10.61-1.42,21.24-1.42,31.88,0,3.91.11,7.78.32,11.6.21,3.82.54,7.63.96,11.42,1.83.73,3.88,1.32,6.15,1.74,2.26.43,4.77.64,7.52.64,4.65,0,8.97-.7,12.98-2.11,4.01-1.41,7.68-3.35,11.01-5.83,3.33-2.47,6.28-5.4,8.85-8.76,2.57-3.36,4.74-6.99,6.51-10.87,1.77-3.88,3.12-7.92,4.04-12.11.92-4.19,1.38-8.39,1.38-12.62s-.46-8.39-1.38-12.71c-.92-4.31-2.28-8.5-4.08-12.57-1.8-4.07-4.01-7.87-6.61-11.42-2.6-3.55-5.58-6.65-8.94-9.31-3.37-2.66-7.08-4.77-11.15-6.33-4.07-1.56-8.46-2.34-13.17-2.34-3.85,0-7.83.7-11.93,2.11-4.1,1.41-7.81,3.38-11.15,5.92-3.33,2.54-6.09,5.58-8.26,9.13-2.17,3.55-3.26,7.43-3.26,11.65,0,1.65.2,3.14.6,4.45s.83,2.52,1.28,3.62c.46,1.1.89,2.12,1.28,3.07.4.95.6,1.91.6,2.89,0,1.77-.6,3.26-1.79,4.45-1.19,1.19-2.65,1.79-4.36,1.79-1.59,0-2.84-.43-3.76-1.29-.92-.86-1.64-1.93-2.16-3.21-.52-1.28-.86-2.64-1.01-4.08-.15-1.44-.23-2.71-.23-3.81,0-5.38,1.27-10.26,3.81-14.63,2.54-4.37,5.85-8.27,9.95-11.7,2.57-2.2,5.15-4.14,7.75-5.83,2.6-1.68,5.28-3.09,8.03-4.22,2.75-1.13,5.64-1.99,8.67-2.57,3.03-.58,6.25-.87,9.68-.87,7.95,0,15.29,1.36,22.02,4.08,6.73,2.72,12.52,6.51,17.38,11.37,4.86,4.86,8.65,10.64,11.38,17.34,2.72,6.7,4.08,14.05,4.08,22.06s-1.45,15.98-4.36,23.16c-2.9,7.19-6.94,13.46-12.11,18.81-5.17,5.35-11.3,9.56-18.4,12.62-7.09,3.06-14.83,4.59-23.21,4.59-2.14,0-4.31-.12-6.51-.37-2.2-.24-4.37-.55-6.51-.92,2.02,13.82,5.69,27.46,11.01,40.92.18.49.35.99.5,1.51.15.52.23,1.02.23,1.51Z"/>
      <path d="M511.99,79.63c0,.67-.25,1.27-.73,1.79-.49.52-1.07.78-1.74.78-.55,0-1.13-.17-1.74-.5-.61-.34-1.3-.72-2.06-1.15-.77-.43-1.65-.81-2.66-1.15-1.01-.34-2.16-.5-3.44-.5-3,0-5.67.93-8.03,2.8s-4.34,4.17-5.96,6.93c-1.62,2.75-2.86,5.69-3.72,8.81-.86,3.12-1.28,5.93-1.28,8.44,0,1.77.15,3.5.46,5.18.3,1.68.84,3.21,1.61,4.58.76,1.38,1.82,2.48,3.17,3.31,1.34.82,3.06,1.24,5.14,1.24,2.2,0,4.31-.41,6.33-1.24,2.02-.83,3.91-1.91,5.69-3.26.06-1.95.38-4.02.96-6.19.58-2.17,1.33-4.31,2.25-6.42.92-2.11,1.97-4.11,3.17-6.01,1.19-1.9,2.43-3.58,3.72-5.04l1.19.73c-.67,2.08-1.16,4.22-1.47,6.42-.31,2.2-.46,4.37-.46,6.52s.18,4.28.55,6.24c.37,1.96,1.01,3.66,1.93,5.09.92,1.44,2.17,2.57,3.76,3.39,1.59.83,3.64,1.24,6.15,1.24,3.06,0,5.87-.7,8.44-2.11,2.57-1.41,4.83-3.18,6.79-5.32l.73.36c-1.1,2.14-2.54,4.19-4.31,6.15-1.77,1.96-3.75,3.72-5.92,5.28s-4.48,2.8-6.93,3.72-4.86,1.37-7.25,1.37c-3.36,0-6.12-.96-8.26-2.89s-3.61-4.36-4.4-7.29c-2.57,2.57-5.43,4.72-8.58,6.47-3.15,1.75-6.47,2.61-9.95,2.61-2.57,0-4.85-.47-6.84-1.42-1.99-.95-3.66-2.22-5-3.81-1.34-1.59-2.37-3.47-3.07-5.64-.7-2.17-1.06-4.45-1.06-6.84,0-2.75.44-5.58,1.33-8.49.89-2.9,2.11-5.76,3.67-8.58s3.41-5.47,5.55-7.98c2.14-2.51,4.48-4.71,7.02-6.6,2.54-1.9,5.21-3.4,8.03-4.5,2.81-1.1,5.69-1.65,8.62-1.65.67,0,1.5.08,2.48.23.98.16,1.93.41,2.84.78.92.37,1.7.89,2.34,1.56.64.67.96,1.53.96,2.57Z"/>
      <path d="M606.76,114.58c-1.1,2.45-2.49,4.65-4.17,6.61-1.68,1.96-3.5,3.62-5.46,5-1.96,1.38-3.98,2.45-6.05,3.21-2.08.77-4.07,1.15-5.96,1.15-3.55,0-6.55-.61-8.99-1.83-2.45-1.22-4.44-2.88-5.96-4.95-1.53-2.08-2.63-4.53-3.3-7.34-.67-2.81-1.01-5.81-1.01-8.99,0-2.45.18-4.99.55-7.61.37-2.63.89-5.17,1.56-7.62.12-.36.24-.81.37-1.33s.18-.96.18-1.33c0-.3-.18-.55-.55-.73-1.04-.37-2.14-.72-3.3-1.06s-2.31-.72-3.44-1.15c-1.13-.43-2.2-.92-3.21-1.47-1.01-.55-1.88-1.25-2.61-2.11-.06,3.67-.67,7.39-1.83,11.15-1.16,3.76-2.71,7.37-4.63,10.82-1.93,3.46-4.17,6.69-6.74,9.68s-5.29,5.59-8.17,7.8l-.92-.92c1.77-1.95,3.39-4.28,4.86-6.97,1.47-2.69,2.72-5.5,3.76-8.44,1.04-2.93,1.85-5.9,2.43-8.9s.87-5.81.87-8.44c0-1.34-.12-2.61-.37-3.81s-.5-2.34-.78-3.44-.54-2.16-.78-3.17-.37-2.03-.37-3.07c0-1.71.55-3.06,1.65-4.04,1.1-.98,2.51-1.47,4.22-1.47.92,0,1.62.26,2.11.78.49.52.92,1.15,1.28,1.88.37.74.79,1.5,1.28,2.3.49.79,1.19,1.47,2.11,2.02,1.16.67,2.63,1.16,4.4,1.47,1.77.31,3.64.58,5.6.83l5.87.73c1.96.24,3.72.66,5.28,1.24,1.56.58,2.83,1.38,3.81,2.39s1.47,2.37,1.47,4.08c0,.86-.08,1.7-.23,2.52-.15.83-.38,1.61-.69,2.34-.73,2.57-1.36,5.18-1.88,7.84s-.78,5.31-.78,7.94c0,2.26.17,4.33.5,6.19.34,1.87.96,3.47,1.88,4.82.92,1.34,2.14,2.38,3.67,3.12,1.53.73,3.49,1.1,5.87,1.1,3.43,0,6.42-.84,8.99-2.52,2.57-1.68,4.83-3.9,6.79-6.65l.83.36Z"/>
      <path d="M653.55,107.98c0,3.18-.58,6.18-1.74,8.99-1.16,2.81-2.78,5.26-4.86,7.34-2.08,2.08-4.51,3.73-7.29,4.95-2.78,1.22-5.79,1.83-9.04,1.83-2.14,0-4.25-.34-6.33-1.01-2.08-.67-3.99-1.63-5.73-2.89-1.74-1.25-3.26-2.77-4.54-4.54-1.28-1.77-2.2-3.73-2.75-5.87l2.11-.55c1.59,1.96,3.44,3.58,5.55,4.86,2.11,1.28,4.51,1.92,7.2,1.92,2.26,0,4.36-.49,6.28-1.47,1.93-.98,3.58-2.26,4.95-3.85,1.38-1.59,2.45-3.44,3.21-5.55.76-2.11,1.15-4.27,1.15-6.47,0-2.63-.37-4.82-1.1-6.56-.73-1.74-1.7-3.21-2.89-4.4-1.19-1.19-2.52-2.23-3.99-3.12-1.47-.89-2.95-1.79-4.45-2.71-1.5-.92-2.94-1.96-4.31-3.12-1.38-1.16-2.55-2.66-3.53-4.49-.06,3.61-.67,7.4-1.83,11.37-1.16,3.98-2.74,7.83-4.72,11.56-1.99,3.73-4.27,7.22-6.84,10.46-2.57,3.24-5.29,5.96-8.16,8.16l-.73-1.29c1.96-2.08,3.67-4.68,5.14-7.8,1.47-3.12,2.68-6.41,3.62-9.86.95-3.45,1.65-6.93,2.11-10.41.46-3.49.69-6.67.69-9.54,0-1.53-.15-3.03-.46-4.5-.31-1.47-.46-2.9-.46-4.31,0-1.71.5-3.03,1.51-3.94,1.01-.92,2.31-1.38,3.9-1.38,1.22,0,2.2.28,2.94.83s1.41,1.27,2.02,2.16c.61.89,1.22,1.9,1.83,3.03.61,1.13,1.39,2.29,2.34,3.48s2.14,2.35,3.58,3.49c1.44,1.13,3.29,2.12,5.55,2.98,2.63.98,5.15,2.1,7.57,3.35s4.56,2.74,6.42,4.45,3.35,3.75,4.45,6.1c1.1,2.36,1.65,5.13,1.65,8.3Z"/>
      <path d="M732.44,114.58c-1.1,2.45-2.49,4.65-4.17,6.61-1.68,1.96-3.5,3.62-5.46,5-1.96,1.38-3.98,2.45-6.05,3.21-2.08.77-4.07,1.15-5.96,1.15-3.55,0-6.55-.61-8.99-1.83-2.45-1.22-4.44-2.88-5.96-4.95-1.53-2.08-2.63-4.53-3.3-7.34-.67-2.81-1.01-5.81-1.01-8.99,0-2.45.18-4.99.55-7.61.37-2.63.89-5.17,1.56-7.62.12-.36.24-.81.37-1.33s.18-.96.18-1.33c0-.3-.18-.55-.55-.73-1.04-.37-2.14-.72-3.3-1.06s-2.31-.72-3.44-1.15c-1.13-.43-2.2-.92-3.21-1.47-1.01-.55-1.88-1.25-2.61-2.11-.06,3.67-.67,7.39-1.83,11.15-1.16,3.76-2.71,7.37-4.63,10.82-1.93,3.46-4.17,6.69-6.74,9.68s-5.29,5.59-8.17,7.8l-.92-.92c1.77-1.95,3.39-4.28,4.86-6.97,1.47-2.69,2.72-5.5,3.76-8.44,1.04-2.93,1.85-5.9,2.43-8.9s.87-5.81.87-8.44c0-1.34-.12-2.61-.37-3.81s-.5-2.34-.78-3.44-.54-2.16-.78-3.17-.37-2.03-.37-3.07c0-1.71.55-3.06,1.65-4.04,1.1-.98,2.51-1.47,4.22-1.47.92,0,1.62.26,2.11.78.49.52.92,1.15,1.28,1.88.37.74.79,1.5,1.28,2.3.49.79,1.19,1.47,2.11,2.02,1.16.67,2.63,1.16,4.4,1.47,1.77.31,3.64.58,5.6.83l5.87.73c1.96.24,3.72.66,5.28,1.24,1.56.58,2.83,1.38,3.81,2.39s1.47,2.37,1.47,4.08c0,.86-.08,1.7-.23,2.52-.15.83-.38,1.61-.69,2.34-.73,2.57-1.36,5.18-1.88,7.84s-.78,5.31-.78,7.94c0,2.26.17,4.33.5,6.19.34,1.87.96,3.47,1.88,4.82.92,1.34,2.14,2.38,3.67,3.12,1.53.73,3.49,1.1,5.87,1.1,3.43,0,6.42-.84,8.99-2.52,2.57-1.68,4.83-3.9,6.79-6.65l.83.36Z"/>
    </g>
  </g>
</svg>