<?xml version="1.0" encoding="UTF-8"?>
<svg id="katman_2" data-name="katman 2" xmlns="http://www.w3.org/2000/svg" viewBox="0 0 299.07 361.85">
  <defs>
    <style>
      .cls-1 {
        fill: #fff;
      }

      .cls-2 {
        fill: red;
        stroke: #fff;
        stroke-width: 5px;
      }

      .cls-2, .cls-3 {
        stroke-miterlimit: 10;
      }

      .cls-3 {
        fill: #1b1100;
        stroke: #fefefe;
        stroke-width: 4px;
      }

      .cls-4 {
        fill: #fefefe;
      }
    </style>
  </defs>
  <g id="katman_1" data-name="katman 1">
    <g>
      <g>
        <path class="cls-3" d="M249.74,226.31c-7.31-1.31-14.61-2.61-21.91-3.92-2.95-1.72-10.85-6.88-15.66-17.21-1.98-4.28-2.94-8.38-3.35-11.96-.44.73-.87,1.45-1.32,2.17-7.57,11.95-17.23,22.68-28.99,32.21-4.41,3.56-9.1,6.87-14.07,9.91,4.18,2.22,9.14,4.37,14.86,6.01,20.13,5.78,37.61,1.83,46.18-.78,3.18-.42,9.99-1.78,16.43-7.04,4.03-3.29,6.45-6.9,7.83-9.39Z"/>
        <path class="cls-3" d="M292,146.48c-3.99-10.17-9.56-17.67-14.09-22.7-17.78,7.36-24.89,20.9-41.44,39.92-3.53,4.06-8.51,9.54-14.95,15.85l.83-.2c7.04,8.91,14.08,17.82,21.13,26.73,4.43,4.13,8.87,8.27,13.3,12.4,1.3,5.62,2.87,15.91,0,28.17-3.9,16.71-13.71,27.13-18,31.2,8.83-5.21,24.73-16.18,37.57-35.89,11.1-17.05,15.15-33.33,16.79-43.04,2.42-7.64,8.05-29.01-1.14-52.44Z"/>
      </g>
      <path class="cls-2" d="M236.46,163.7c16.55-19.02,23.67-32.57,41.44-39.92l5.48-10.17c-1.04-3.39-2.09-6.78-3.13-10.17-6.12-6.45-16.14-15.48-30.52-22.7-10.8-5.41-20.94-8.24-29.7-9.78,1.94,4.17,3.69,8.58,5.24,13.24,1.57,5.06,2.77,10.35,3.63,15.84,1.89-1.15,4.11-1.82,6.48-1.82,6.92,0,12.52,5.61,12.52,12.52s-5.61,12.52-12.52,12.52c-1.76,0-3.44-.37-4.96-1.03-.17,11.93-2.05,23.9-5.71,35.9-2.36,7.77-5.4,15.36-9.09,22.79l5.89-1.38c6.44-6.31,11.42-11.79,14.95-15.85Z"/>
      <path class="cls-4" d="M94.09,361.85c-3.24,0-6.36-.62-9.28-1.84-2.57-1.06-4.99-2.27-7.18-3.58-4.7-2.59-8.86-6.4-12.37-11.34-3.37-4.73-6.27-10.24-8.63-16.38-2.3-5.98-4.28-12.58-5.88-19.61-1.59-6.99-2.88-14.14-3.83-21.24-.95-6.98-1.71-14.13-2.26-21.22-.47-5.95-.79-11.62-.96-16.91-3.26-1.3-6.52-2.73-9.72-4.25-4.22-2-8.09-4.3-11.47-6.83-3.48-2.59-6.4-5.47-8.68-8.58-2.55-3.48-3.83-7.26-3.83-11.24,0-3.15.77-6.06,2.29-8.65,1.3-2.24,3.97-4.93,9.26-4.93,2.92,0,5.72.66,8.31,1.95,2.3,1.15,4.6,2.64,6.83,4.43,2.13,1.7,4.35,3.67,6.6,5.84.07.07.14.14.21.21.16-11.19.62-23.02,1.37-35.28.95-15.61,2.68-31.45,5.14-47.06,2.46-15.67,5.82-31.15,9.98-46.01,4.21-15.03,9.62-29.06,16.09-41.71.7-1.37,2.09-2.18,3.56-2.18.42,0,.84.07,1.26.2l3.67,1.22c1.91.64,3.05,2.59,2.66,4.57-4.58,23.33-7.96,46.95-10.03,70.21-2.09,23.3-3.14,47.01-3.14,70.48,0,8.69.24,17.29.7,25.55.41,7.46,1.04,15.09,1.85,22.73,3.26,1.15,6.84,2.09,10.69,2.82,4.73.9,10.09,1.36,15.97,1.36,9.83,0,19.09-1.5,27.51-4.46,8.51-2.99,16.38-7.16,23.4-12.39,7.08-5.24,13.43-11.52,18.89-18.68,5.49-7.19,10.2-15.06,14.01-23.4,3.82-8.37,6.74-17.15,8.69-26.09,1.97-8.99,2.97-18.13,2.97-27.18s-1-18.13-2.97-27.4c-1.95-9.22-4.92-18.35-8.81-27.13-3.85-8.69-8.64-16.98-14.24-24.64-5.54-7.55-11.97-14.25-19.12-19.9-7.12-5.63-15.11-10.16-23.72-13.47-8.55-3.27-17.91-4.93-27.82-4.93-8.09,0-16.57,1.5-25.2,4.47-8.65,2.97-16.61,7.19-23.65,12.54-6.98,5.33-12.82,11.79-17.35,19.19-4.41,7.22-6.65,15.22-6.65,23.79,0,3.24.39,6.18,1.16,8.74.81,2.69,1.72,5.27,2.72,7.67,1.01,2.44,1.96,4.7,2.85,6.8,1.09,2.6,1.63,5.28,1.63,7.98,0,5.03-1.73,9.31-5.14,12.72-3.42,3.41-7.63,5.14-12.51,5.14-4.56,0-8.29-1.32-11.09-3.92-2.47-2.31-4.41-5.19-5.77-8.57-1.28-3.15-2.13-6.57-2.51-10.14-.35-3.31-.53-6.3-.53-8.88,0-12.63,3.03-24.24,9-34.52,5.83-10.05,13.57-19.15,23-27.04,5.8-4.97,11.73-9.43,17.61-13.24,5.94-3.84,12.16-7.11,18.5-9.71,6.37-2.61,13.11-4.61,20.03-5.94,6.96-1.33,14.45-2.01,22.26-2.01,18.08,0,35.04,3.15,50.42,9.36,15.39,6.23,28.83,15.03,39.95,26.15,11.13,11.13,19.93,24.54,26.16,39.85,6.21,15.31,9.37,32.31,9.37,50.54s-3.35,36.58-9.97,52.96c-6.62,16.36-15.95,30.85-27.74,43.06-11.79,12.22-25.97,21.95-42.17,28.92-16.21,6.99-34.1,10.53-53.15,10.53-4.82,0-9.83-.28-14.91-.84-3.03-.34-6.13-.74-9.25-1.2,4.56,28.44,12.43,56.88,23.4,84.62.5,1.34.89,2.53,1.24,3.71.44,1.5.67,3.02.67,4.5,0,5.98-3.95,9.7-10.32,9.7Z"/>
      <g>
        <path d="M242.69,110.74c0,4.03-3.27,7.3-7.3,7.3-1.95,0-3.71-.76-5.02-2-1.41-1.33-2.29-3.21-2.29-5.3,0-1.74.61-3.34,1.63-4.59,1.34-1.66,3.38-2.72,5.68-2.72,4.03,0,7.3,3.27,7.3,7.31Z"/>
        <path class="cls-1" d="M235.39,98.22c-2.38,0-4.59.67-6.49,1.82-3.61,2.2-6.04,6.16-6.04,10.7,0,5.15,3.12,9.57,7.56,11.49,1.52.66,3.2,1.03,4.97,1.03,6.91,0,12.52-5.61,12.52-12.52s-5.61-12.52-12.52-12.52ZM235.39,118.04c-1.95,0-3.71-.76-5.02-2-1.41-1.33-2.29-3.21-2.29-5.3,0-1.74.61-3.34,1.63-4.59,1.34-1.66,3.38-2.72,5.68-2.72,4.03,0,7.3,3.27,7.3,7.31s-3.27,7.3-7.3,7.3Z"/>
      </g>
    </g>
  </g>
</svg>